<?xml version="1.0" encoding="UTF-8"?>
<svg version="1.1" xmlns="http://www.w3.org/2000/svg" width="512" height="512">
<path d="M0 0 C0.33 0 0.66 0 1 0 C1 63.36 1 126.72 1 192 C-1.97 193.65 -4.94 195.3 -8 197 C-14.88193026 201.32121203 -18.92050571 209.31449577 -21 217 C-22.11008968 228.6172176 -20.82371034 237.56484662 -13.5 246.75 C-6.47986879 254.08213704 2.0860391 257.76913326 12.19140625 258.09765625 C22.39146571 257.74299493 30.81804567 253.69900734 37.875 246.25 C44.97145284 237.34168686 46.18484979 228.2077118 45 217 C43.14027085 209.23719801 39.04554781 201.85677914 32.4609375 197.20703125 C29.36925086 195.33152682 26.23322449 193.61661224 23 192 C23 128.64 23 65.28 23 0 C26.37686801 1.688434 27.09585927 5.5636463 28.46484375 8.921875 C28.80954712 9.75175934 29.15425049 10.58164368 29.50939941 11.43667603 C30.26106971 13.24845676 31.00965852 15.0615182 31.75558472 16.87567139 C33.36470469 20.78892952 34.98846021 24.69606191 36.61109924 28.60372925 C37.4613672 30.65200547 38.31083032 32.70061596 39.15953064 34.74954224 C43.15117195 44.38367865 47.19931339 53.99345881 51.26251221 63.59759521 C52.44842677 66.40082841 53.63329597 69.20450133 54.81787109 72.00830078 C57.21109495 77.67254691 59.60544118 83.33631812 62 89 C83.09725543 138.89985718 83.09725543 138.89985718 92.26147461 160.90234375 C95.74506937 169.2608454 99.25035196 177.60809217 102.83244324 185.92495728 C104.53052501 189.87072652 106.2168298 193.82147978 107.90231323 197.77264404 C108.70840289 199.65313763 109.52022892 201.53118408 110.33816528 203.40655518 C111.47195115 206.00717338 112.58550186 208.61564127 113.6953125 211.2265625 C114.03184341 211.98404785 114.36837433 212.7415332 114.71510315 213.52197266 C116.87412202 218.67477124 117.79132033 223.40957122 117 229 C115.3828125 231.828125 115.3828125 231.828125 113.125 234.25 C111.89136719 235.6421875 111.89136719 235.6421875 110.6328125 237.0625 C109.76398438 238.031875 108.89515625 239.00125 108 240 C90.17019207 261.77347262 77.3731502 287.22236464 72.42529297 315.08618164 C72 317 72 317 71 318 C69.46914161 318.09581822 67.93386244 318.12188108 66.40000916 318.12025452 C64.90864189 318.12231651 64.90864189 318.12231651 63.387146 318.12442017 C62.28735413 318.12082489 61.18756226 318.11722961 60.05444336 318.11352539 C58.90337601 318.11367142 57.75230865 318.11381744 56.56636047 318.1139679 C52.74083609 318.11326818 48.91535969 318.10547302 45.08984375 318.09765625 C42.44568407 318.09579228 39.80152404 318.09436828 37.15736389 318.09336853 C30.89584583 318.09025549 24.63434514 318.08204248 18.37283474 318.07201904 C11.24598463 318.06085705 4.1191337 318.05534724 -3.00772297 318.05032361 C-17.6718243 318.03985984 -32.33591191 318.02226093 -47 318 C-48.17884938 314.48950461 -49.3121995 310.99746542 -50.26171875 307.41796875 C-57.96041613 279.02256123 -70.20120537 255.82590149 -89.62890625 233.765625 C-93.05028309 229.77495811 -93.30182149 227.56891446 -93.23452759 222.47033691 C-92.84866368 218.40593719 -91.37459843 215.00151873 -89.73046875 211.296875 C-89.38293549 210.47831024 -89.03540222 209.65974548 -88.67733765 208.81637573 C-87.5289308 206.12094069 -86.35823786 203.43580169 -85.1875 200.75 C-84.36743837 198.83581729 -83.54902911 196.92092594 -82.73217773 195.00537109 C-81.02333646 191.00322069 -79.3063034 187.00473607 -77.58300781 183.00878906 C-75.10890595 177.26460217 -72.66889434 171.50653497 -70.2421875 165.7421875 C-69.85615356 164.82525116 -69.47011963 163.90831482 -69.0723877 162.96359253 C-68.2933071 161.11259481 -67.51433566 159.26155113 -66.73547363 157.41046143 C-64.75793752 152.71440484 -62.7734283 148.02129877 -60.7890625 143.328125 C-60.39416626 142.39396759 -59.99927002 141.45981018 -59.59240723 140.49734497 C-57.99577446 136.72042508 -56.39894205 132.94358961 -54.80212402 129.16674805 C-45.81745584 107.91527421 -36.84355711 86.65956115 -27.9375 65.375 C-27.57358154 64.50544678 -27.20966309 63.63589355 -26.8347168 62.73999023 C-22.9480189 53.45217315 -19.06662128 44.16216628 -15.19334412 34.8687439 C-13.51439237 30.8412581 -11.83361655 26.81453486 -10.15261841 22.78790283 C-9.3465716 20.8556335 -8.54144729 18.92297907 -7.73727417 16.9899292 C-6.62782218 14.32309521 -5.51541319 11.65751324 -4.40234375 8.9921875 C-4.07097412 8.19341187 -3.73960449 7.39463623 -3.39819336 6.57165527 C-1.11385971 1.11385971 -1.11385971 1.11385971 0 0 Z " fill="#FCCB66" transform="translate(244,90)"/>
<path d="M0 0 C1.05574219 0.60134766 1.05574219 0.60134766 2.1328125 1.21484375 C8.11239929 5.13681607 11.72074707 10.72842878 15 17 C15 17.66 15 18.32 15 19 C53.94 19 92.88 19 133 19 C133 13.72 133 8.44 133 3 C138 -3 138 -3 140 -4 C141.75482588 -4.11610279 143.51395227 -4.16961155 145.27246094 -4.19287109 C146.37410583 -4.20893402 147.47575073 -4.22499695 148.61077881 -4.24154663 C153.65620358 -4.28595086 158.70149585 -4.32706703 163.74707031 -4.35009766 C166.40915107 -4.36342106 169.06941594 -4.39393202 171.73144531 -4.43212891 C175.56599026 -4.48688091 179.39949183 -4.50877129 183.234375 -4.5234375 C185.01590973 -4.55744156 185.01590973 -4.55744156 186.83343506 -4.59213257 C196.04728381 -4.56856539 196.04728381 -4.56856539 199.73535156 -1.59228516 C205.78224889 5.32944359 203 5.87446756 203 19 C241.94 19 280.88 19 321 19 C321.66 17.02 322.32 15.04 323 13 C328.21068863 4.11814439 336.1146079 -1.33901138 346 -4 C358.6432708 -5.07442815 368.29918904 -4.2107608 378.3125 4.1875 C386.33416774 11.88175273 389.28851538 19.8851538 390.375 30.75 C390.07761016 40.04343246 386.53992254 49.38438391 380 56 C371.36068177 63.98764552 362.37867829 66.75949083 350.6796875 66.37109375 C340.09927498 65.30406701 333.10380605 60.80652068 326 53 C321 46.38963964 321 46.38963964 321 43 C305.82 43.33 290.64 43.66 275 44 C281.93 49.445 281.93 49.445 289 55 C291.36570125 57.03939763 293.67441762 59.04863221 295.9375 61.1875 C296.47560303 61.69176514 297.01370605 62.19603027 297.56811523 62.71557617 C301.67492319 66.60587615 305.44125484 70.60963229 309 75 C309.89958842 76.07564728 310.79934383 77.1511549 311.69921875 78.2265625 C337.11952053 108.93809906 354.42012675 146.34596141 365.1875 184.5625 C365.51862793 185.67637085 365.51862793 185.67637085 365.85644531 186.81274414 C367.27211916 192.17937905 366.83398463 195.74482079 365 201 C361.7516391 204.71241246 359.96058208 205.86277399 355.0625 206.5625 C350.6648089 206.23393687 347.28542 204.96034277 344 202 C341.90115366 197.13642968 340.46139971 192.21474231 339.11206055 187.10107422 C329.47891105 150.8486354 312.07413899 117.6534589 288 89 C287.3915625 88.26652344 286.783125 87.53304687 286.15625 86.77734375 C282.13259116 82.03125526 277.81805335 77.93178936 273 74 C272.06414062 73.2265625 271.12828125 72.453125 270.1640625 71.65625 C250.27138833 55.57267779 227.93445517 47.55533316 203 43 C203.05800781 44.08539063 203.11601562 45.17078125 203.17578125 46.2890625 C203.22270558 47.73433176 203.26820287 49.17964784 203.3125 50.625 C203.35439453 51.33785156 203.39628906 52.05070312 203.43945312 52.78515625 C203.53230532 56.83351196 203.20712546 59.26404313 200.60546875 62.4609375 C197.06700323 65.90921725 195.53458295 66.12928902 190.72753906 66.19287109 C189.62589417 66.20893402 188.52424927 66.22499695 187.38922119 66.24154663 C182.34379642 66.28595086 177.29850415 66.32706703 172.25292969 66.35009766 C169.59084893 66.36342106 166.93058406 66.39393202 164.26855469 66.43212891 C160.43400974 66.48688091 156.60050817 66.50877129 152.765625 66.5234375 C150.98409027 66.55744156 150.98409027 66.55744156 149.16656494 66.59213257 C139.95271619 66.56856539 139.95271619 66.56856539 136.26464844 63.59228516 C132.58969751 59.3856628 132.87720297 56.24607397 132.9375 50.875 C132.94201172 50.12089844 132.94652344 49.36679687 132.95117188 48.58984375 C132.96296501 46.72652873 132.98090058 44.86325445 133 43 C91.20223114 50.71460304 56.88727777 67.19019062 32 103 C13.32493445 130.58619396 0.02882011 162.09294975 -5.296875 195.07421875 C-6.37844257 199.57474157 -7.87451239 202.25820135 -11.75 204.8125 C-15.52868431 206.19317311 -18.00439225 206.49945097 -22 206 C-25.70390021 203.97333762 -27.65363011 202.51955484 -30 199 C-30.90216936 190.97147046 -29.56747172 183.41606148 -27.5 175.6875 C-27.23300293 174.66060059 -26.96600586 173.63370117 -26.69091797 172.57568359 C-13.08408023 121.6996318 12.95835716 75.30301297 56 44 C42.47 44 28.94 44 15 44 C13.68 46.64 12.36 49.28 11 52 C5.64301272 59.05297671 -2.19187258 64.39852229 -11 66 C-23.07537276 66.86658557 -32.58230436 65.48000271 -42.1875 57.67578125 C-49.53067246 50.88651188 -52.96542377 42.60413526 -54.3125 32.703125 C-54.64534131 22.301834 -50.85602729 13.39455422 -43.95703125 5.73046875 C-32.26928826 -5.4194312 -14.28834688 -8.34795358 0 0 Z " fill="#FCCC66" transform="translate(88,4)"/>
<path d="M0 0 C54.12 0 108.24 0 164 0 C164 74 164 74 160 80 C156.50224272 82.33183818 155.11334255 82.25479041 150.978302 82.26742554 C149.7192807 82.27595551 148.4602594 82.28448547 147.16308594 82.29327393 C145.76513659 82.29257488 144.36718735 82.2916518 142.96923828 82.29052734 C141.49909116 82.29651077 140.02894719 82.30331588 138.55880737 82.31088257 C134.56289221 82.32856923 130.56706267 82.33323908 126.57111216 82.33451414 C123.23611318 82.33641229 119.9011342 82.3437689 116.56614292 82.35085833 C108.69789359 82.36715017 100.82969004 82.37202658 92.96142578 82.37060547 C84.84353156 82.36940394 76.72590316 82.39050607 68.60807621 82.4220928 C61.63982966 82.44824078 54.67166999 82.45897338 47.70337474 82.45769465 C43.54093581 82.45718456 39.37873303 82.46289341 35.21634293 82.48405075 C31.30103829 82.50340833 27.38619567 82.50357496 23.47087479 82.48901749 C22.03456447 82.48692514 20.59822543 82.4916557 19.16196442 82.5037384 C17.19992299 82.51917406 15.23772426 82.5074914 13.27566528 82.49447632 C12.17801912 82.49556585 11.08037296 82.49665539 9.9494648 82.49777794 C6.25510518 81.87428492 4.6384071 80.62224689 2 78 C-9.63137519 54.73724961 0 26.0085456 0 0 Z " fill="#FCCB66" transform="translate(174,430)"/>
<path d="M0 0 C2.70552388 2.19823815 4.44778333 3.89556667 6 7 C6.50872093 13.10465114 6.06705978 16.11952826 2 21 C-2.2432447 23.8288298 -6.01734529 23.65268001 -11 23 C-14.49996383 20.95835443 -16.80555258 18.90910064 -18 15 C-18.46457914 10.1993489 -18.47909117 7.95818235 -16.3125 3.625 C-11.69783836 -1.61326457 -6.50374675 -1.86157969 0 0 Z " fill="#FCCC66" transform="translate(262,303)"/>
</svg>
